<?xml version="1.0" encoding="utf-8"?>
<!-- Generator: Adobe Illustrator 26.0.0, SVG Export Plug-In . SVG Version: 6.00 Build 0)  -->
<svg version="1.1" id="Layer_1" xmlns="http://www.w3.org/2000/svg" xmlns:xlink="http://www.w3.org/1999/xlink" x="0px" y="0px"
	 viewBox="0 0 512 512" style="enable-background:new 0 0 512 512;" xml:space="preserve">
<style type="text/css">
	.st0{fill:url(#SVGID_1_);}
	.st1{fill:url(#SVGID_00000085947923420110638680000006511103866850735764_);}
	.st2{fill:url(#SVGID_00000075853748527466038230000009226633290859729827_);}
	.st3{fill:url(#SVGID_00000152953197017903580230000008072057813588208286_);}
	.st4{fill:url(#SVGID_00000021813419708439312270000002289687258929530538_);}
	.st5{fill:url(#SVGID_00000068671666612132682150000010976431323183638928_);}
	.st6{fill:url(#SVGID_00000176011583423316193250000012024515187100744106_);}
	.st7{fill:url(#SVGID_00000051375944590042069220000005401272958282576273_);}
	.st8{fill:url(#SVGID_00000075861429899202894360000014493149694641665675_);}
	.st9{fill:url(#SVGID_00000154419952792516103490000003434609211018109851_);}
	.st10{fill:url(#SVGID_00000106121688999769491480000004213612920768981162_);}
	.st11{fill:url(#SVGID_00000110436450890119021310000012328518770482985094_);}
	.st12{fill:url(#SVGID_00000026156103221600839020000009183725140299813779_);}
	.st13{fill:url(#SVGID_00000137810292480449769450000010921586412437846958_);}
	.st14{fill:url(#SVGID_00000059990173041475475030000006664332641081421725_);}
	.st15{fill:url(#SVGID_00000093151436207891170850000008035845378900657596_);}
	.st16{fill:url(#SVGID_00000105411423681634827860000008209159919902089135_);}
	.st17{fill:url(#SVGID_00000124874791571650405860000013219940550594326699_);}
	.st18{fill:url(#SVGID_00000016066649475385997640000000876925228072963206_);}
	.st19{fill:url(#SVGID_00000178916827788121988870000010598554552351848638_);}
</style>
<g>
	<linearGradient id="SVGID_1_" gradientUnits="userSpaceOnUse" x1="264.9705" y1="293.2934" x2="264.9705" y2="24.4735">
		<stop  offset="0" style="stop-color:#F0A585"/>
		<stop  offset="1" style="stop-color:#F37679"/>
	</linearGradient>
	<path class="st0" d="M384.7,24.5h-9.9c-2.8,1.3-5.7,2.5-8.4,3.9c-18.8,9.4-37.7,18.8-56.5,28.3c-7.1,3.6-14.5,5.7-22.6,5.1
		c-15.2-1.1-30.4-1.9-45.5-3.5c-10.3-1.1-18.8,1.5-26.2,9c-25.4,25.7-51,51.3-76.7,76.7c-6.8,6.7-9.9,14.3-9.8,23.8
		c0.2,19.7-0.1,39.5,0.1,59.2c0.1,11.2-3.1,21-10.2,29.6c-1.4,1.7-2.6,3.5-3.9,5.2c0.2,0.2,0.4,0.5,0.6,0.7
		c6.4-3.4,12.7-6.8,19.7-10.4c0.2,2.5,0.3,4.2,0.4,6c0.2,9.5,0.3,19,0.6,28.5c0,1.4,0.9,3.6,1.8,3.9c4.2,1.2,8.6,1.9,13.4,2.8
		c-0.5-3-0.9-5.2-1.1-7.4c-3.7-43.1,38.6-73.5,78-56.2c2.9,1.3,4.7,1,7-1.3c25-25.2,50.2-50.4,75.4-75.4c2.8-2.8,3.6-4.8,1.8-8.7
		c-12.6-27.5,1.4-61.7,29.4-72.9c15.2-6.1,30.1-5.9,45.1,0.7c1.3,0.6,3.6,0.8,4.3,0.1c7.8-7.5,15.4-15.1,23.3-23.1
		C404.6,40.5,397.9,28.6,384.7,24.5z M162.9,231.5c-0.2-0.4-0.7-1.4-1.1-2.5c-5.4-16.1-10.6-32.2-16.1-48.3
		c-3.5-10.4-1.4-19.2,6.3-26.9c22.9-22.9,45.8-45.8,68.7-68.7c7.3-7.3,15.9-9.6,25.6-6.5c17.5,5.7,35,11.6,52.1,17.3
		C253.2,141.2,208.1,186.3,162.9,231.5z"/>
	
		<linearGradient id="SVGID_00000004543511519592093610000004492322787446195104_" gradientUnits="userSpaceOnUse" x1="308.0394" y1="431.864" x2="308.0394" y2="304.0034">
		<stop  offset="0" style="stop-color:#F0A585"/>
		<stop  offset="1" style="stop-color:#F37679"/>
	</linearGradient>
	<path style="fill:url(#SVGID_00000004543511519592093610000004492322787446195104_);" d="M479.6,409.2c0-13.3-5.9-21.5-18.4-25.7
		c-20.2-6.8-40.4-13.6-60.7-20.2c-9.2-3-16.6-8.1-22.8-15.5c-9.5-11.3-19.2-22.4-28.7-33.7c-5.7-6.8-12.9-10.1-21.7-10.1
		c-37.2,0-74.4,0.1-111.7,0c-8,0-14.6,2.8-20.2,8.4c-9.8,9.8-19.6,19.6-29.4,29.5c-0.7,0.7-1.3,1.6-2.2,2.5c3.6,4.5,7.2,8.9,11,13.6
		c-1.9,0.5-3.2,0.9-4.5,1.1c-10.2,2-20.3,4-30.5,6.2c-1.2,0.2-3.1,1.5-3.1,2.3c-0.2,11.4-0.1,22.8-0.1,34.4c0.8-0.4,1.7-0.8,2.6-1.3
		c30.9-18.4,68.1-6,81.3,27.5c1.2,3.2,3.1,3.7,6.1,3.7c35.3-0.1,70.5-0.1,105.8,0c4.6,0,6.7-1.1,8.4-5.6
		c9.4-24.6,37.8-39.1,63.3-32.8c19.2,4.8,32.5,16.3,39.7,34.8c1,2.7,2.4,3.7,5.3,3.6c8.1-0.2,16.3,0,24.4-0.1c2,0,4-0.2,6.3-0.3
		C479.6,423.7,479.6,416.5,479.6,409.2z M172.1,383.5c0.7-1.5,1.2-2.8,1.7-3.9c7.3-14.7,14.7-29.3,21.9-44
		c5.1-10.4,13.2-15.4,24.8-15.4c31.8,0.2,63.6,0.1,95.4,0c11.3,0,19.3,4.7,24.3,14.8c7.4,15,14.9,29.8,22.3,44.8
		c0.5,1,1,2.1,1.7,3.8H172.1z"/>
	
		<linearGradient id="SVGID_00000062150307598141748580000003910721709449179041_" gradientUnits="userSpaceOnUse" x1="89.2156" y1="384.9435" x2="89.2156" y2="271.1935">
		<stop  offset="0" style="stop-color:#F0A585"/>
		<stop  offset="1" style="stop-color:#F37679"/>
	</linearGradient>
	<path style="fill:url(#SVGID_00000062150307598141748580000003910721709449179041_);" d="M146.1,347.8c-7.1,1.4-13.6,3-20.2,4
		c-4,0.6-5.2,2.2-5.1,6.1c0.2,6.5,0.1,12.9,0.1,20.4c-8.1-4.3-15.3-8.1-23-12.2c-5.5,6.1-11,12.2-17,18.8c-2.8-6.8-5.6-13-7.8-19.5
		c-1.2-3.6-3.1-4-6.4-3.4c-6.6,1.1-13.3,2-20.6,3.1c2.5-7.4,4.6-14.1,7-20.7c1-2.6,0.4-3.8-1.8-5.1c-6.2-3.6-12.3-7.4-18.9-11.3
		c6.5-4,12.3-7.7,18.4-11c3-1.6,3.2-3.2,2.1-6.1c-2.4-6.3-4.4-12.7-6.9-19.9c8.7,1.2,16.8,2.4,25.3,3.6c3.1-7.7,6.2-15.2,9.5-23.5
		c5.1,5.7,9.9,10.8,14.4,16.1c1.9,2.3,3.5,2.5,6.1,1c6.1-3.5,12.3-6.7,19.5-10.6c0,7.8,0.1,14.6,0,21.3c-0.1,3.3,1,4.7,4.5,5.2
		c6.8,1,13.5,2.7,20.7,4.2c-5.5,6.8-10.6,13.1-15.8,19.7C135.4,334.5,140.5,340.8,146.1,347.8z"/>
	
		<linearGradient id="SVGID_00000130606703778117858060000015880860118614168705_" gradientUnits="userSpaceOnUse" x1="363.8403" y1="162.1335" x2="363.8403" y2="82.432">
		<stop  offset="0" style="stop-color:#F0A585"/>
		<stop  offset="1" style="stop-color:#F37679"/>
	</linearGradient>
	<path style="fill:url(#SVGID_00000130606703778117858060000015880860118614168705_);" d="M364,82.4c-21.8-0.2-39.9,17.8-40,39.8
		c-0.1,22,17.7,39.9,39.8,39.9c22,0,40-18,39.9-39.9C403.6,100.6,385.7,82.6,364,82.4z M363.7,146c-13.3-0.1-23.6-10.6-23.5-23.9
		c0.1-13.1,10.5-23.4,23.6-23.5c13.4-0.1,24,10.7,23.8,24.2C387.3,135.8,376.7,146.1,363.7,146z"/>
	
		<linearGradient id="SVGID_00000023268010790277609530000004186491146407447942_" gradientUnits="userSpaceOnUse" x1="391.8027" y1="487.5265" x2="391.8027" y2="407.9124">
		<stop  offset="0" style="stop-color:#F0A585"/>
		<stop  offset="1" style="stop-color:#F37679"/>
	</linearGradient>
	<path style="fill:url(#SVGID_00000023268010790277609530000004186491146407447942_);" d="M392,407.9c-22-0.2-39.9,17.5-40.1,39.6
		c-0.2,21.6,17.6,39.7,39.3,40c21.8,0.3,40-17.5,40.4-39.5C432.1,426.4,414,408.1,392,407.9z M391.7,471.4
		c-13.2,0-23.9-10.8-23.7-23.8c0.2-13.3,10.7-23.6,24-23.5c13,0.1,23.5,10.6,23.5,23.6C415.6,460.7,404.9,471.4,391.7,471.4z"/>
	
		<linearGradient id="SVGID_00000014617985298418941860000004091840241178585771_" gradientUnits="userSpaceOnUse" x1="168.5262" y1="487.5236" x2="168.5262" y2="407.9118">
		<stop  offset="0" style="stop-color:#F0A585"/>
		<stop  offset="1" style="stop-color:#F37679"/>
	</linearGradient>
	<path style="fill:url(#SVGID_00000014617985298418941860000004091840241178585771_);" d="M168.8,407.9c-22-0.2-40,17.5-40.1,39.6
		c-0.1,22,17.7,40,39.7,40c21.7,0,39.7-17.7,39.9-39.4C208.6,426.2,190.8,408.1,168.8,407.9z M168.5,471.4
		c-13.3,0-23.7-10.5-23.7-23.8c0-13.2,10.3-23.5,23.4-23.6c13.3-0.1,23.9,10.3,23.9,23.5C192.2,460.8,181.7,471.4,168.5,471.4z"/>
	
		<linearGradient id="SVGID_00000106131285477168512420000003693262176113407916_" gradientUnits="userSpaceOnUse" x1="205.9981" y1="308.1234" x2="205.9981" y2="240.454">
		<stop  offset="0" style="stop-color:#F0A585"/>
		<stop  offset="1" style="stop-color:#F37679"/>
	</linearGradient>
	<path style="fill:url(#SVGID_00000106131285477168512420000003693262176113407916_);" d="M245.5,284.9c-0.3,2.7-1.1,3.7-3.8,3.6
		c-4.2-0.2-8.4,0-13,0c2.2-15.3-2-24.7-12.8-29.8c-9.1-4.2-20.6-2-27.3,5.4c-8.4,9.2-8.4,19-0.6,32c-3.5,4-6.8,7.9-10.4,12.1
		c-1.9-2.4-3.5-4.4-5.1-6.5c0.7-1.1,1.3-2.2,2-3.4c-0.4,0.2-0.8,0.4-1.2,0.6c-1.6-2.1-3.9-3.9-4.7-6.3c-9-25.6,10.8-52.7,38-52.1
		C230.4,241,248.1,261.1,245.5,284.9z"/>
	
		<linearGradient id="SVGID_00000024708544122164648540000015556551583683481241_" gradientUnits="userSpaceOnUse" x1="291.0905" y1="252.5434" x2="291.0905" y2="162.5034">
		<stop  offset="0" style="stop-color:#F0A585"/>
		<stop  offset="1" style="stop-color:#F37679"/>
	</linearGradient>
	<path style="fill:url(#SVGID_00000024708544122164648540000015556551583683481241_);" d="M336.1,170.9
		c-27.1,27.1-54.3,54.3-81.6,81.7c-2.5-3.3-5.6-7.5-8.5-11.2c26.2-26.2,52.5-52.5,78.8-78.8C328.5,165.2,332.6,168.2,336.1,170.9z"
		/>
	
		<linearGradient id="SVGID_00000100355994242535823290000000514530997882639258_" gradientUnits="userSpaceOnUse" x1="280.1005" y1="463.4834" x2="280.1005" y2="447.9334">
		<stop  offset="0" style="stop-color:#F0A585"/>
		<stop  offset="1" style="stop-color:#F37679"/>
	</linearGradient>
	<path style="fill:url(#SVGID_00000100355994242535823290000000514530997882639258_);" d="M338,463.5H222.2
		c0.8-5.4,1.5-10.4,2.3-15.5h111.2C336.5,453.1,337.2,458.1,338,463.5z"/>
	
		<linearGradient id="SVGID_00000093885221483708649650000002420252285755018637_" gradientUnits="userSpaceOnUse" x1="107.6842" y1="431.7553" x2="107.6842" y2="385.8435">
		<stop  offset="0" style="stop-color:#F0A585"/>
		<stop  offset="1" style="stop-color:#F37679"/>
	</linearGradient>
	<path style="fill:url(#SVGID_00000093885221483708649650000002420252285755018637_);" d="M134.5,403.7c-8.9,7.3-15,15.7-18.6,25.9
		c-0.3,1-1.9,2.1-2.9,2.1c-10.5,0.1-21,0.1-32.1,0.1c0-7.6,0-14.9,0-22.2c0-0.7,0.5-1.4,0.9-1.9c6.4-7.2,12.8-14.3,19.5-21.7
		C112.3,391.8,123.1,397.6,134.5,403.7z"/>
	
		<linearGradient id="SVGID_00000183960635551438422720000013829395179297616306_" gradientUnits="userSpaceOnUse" x1="415.3215" y1="95.4334" x2="415.3215" y2="61.5035">
		<stop  offset="0" style="stop-color:#F0A585"/>
		<stop  offset="1" style="stop-color:#F37679"/>
	</linearGradient>
	<path style="fill:url(#SVGID_00000183960635551438422720000013829395179297616306_);" d="M412.9,95.4c-3.1-4.2-6.2-8.3-9.5-12.6
		c0.9-1,1.8-2,2.7-3c6-6.1,12-12.1,18-18.3C430.7,72.3,426.4,84.8,412.9,95.4z"/>
	
		<linearGradient id="SVGID_00000021098651737868832600000006076558178408602522_" gradientUnits="userSpaceOnUse" x1="461.5005" y1="463.9111" x2="461.5005" y2="447.9435">
		<stop  offset="0" style="stop-color:#F0A585"/>
		<stop  offset="1" style="stop-color:#F37679"/>
	</linearGradient>
	<path style="fill:url(#SVGID_00000021098651737868832600000006076558178408602522_);" d="M477.4,447.9
		c-3.6,11.8-14.7,17.4-31.8,15.6c0.7-5,1.4-10,2.1-15.6H477.4z"/>
	
		<linearGradient id="SVGID_00000120534732809169984990000003331099786921001613_" gradientUnits="userSpaceOnUse" x1="98.7955" y1="463.9047" x2="98.7955" y2="447.9635">
		<stop  offset="0" style="stop-color:#F0A585"/>
		<stop  offset="1" style="stop-color:#F37679"/>
	</linearGradient>
	<path style="fill:url(#SVGID_00000120534732809169984990000003331099786921001613_);" d="M114.7,463.2
		c-14.8,2.7-28.2-2.7-31.8-15.3h29.6C113.3,453.2,114,458.2,114.7,463.2z"/>
	
		<linearGradient id="SVGID_00000019666380015636660950000013560579457801831605_" gradientUnits="userSpaceOnUse" x1="205.903" y1="288.124" x2="205.903" y2="272.3221">
		<stop  offset="0" style="stop-color:#F0A585"/>
		<stop  offset="1" style="stop-color:#F37679"/>
	</linearGradient>
	<path style="fill:url(#SVGID_00000019666380015636660950000013560579457801831605_);" d="M213.8,280.2c0,4.5-3.5,8-7.9,8
		c-4.2,0-7.7-3.5-7.9-7.7c-0.2-4.3,3.4-8.1,7.8-8.1C210.2,272.2,213.8,275.7,213.8,280.2z"/>
	
		<linearGradient id="SVGID_00000160162446230591624370000013196842986544778635_" gradientUnits="userSpaceOnUse" x1="158.2355" y1="331.0835" x2="158.2355" y2="314.2434">
		<stop  offset="0" style="stop-color:#F0A585"/>
		<stop  offset="1" style="stop-color:#F37679"/>
	</linearGradient>
	<path style="fill:url(#SVGID_00000160162446230591624370000013196842986544778635_);" d="M166,319.1c-4.3,4-8.4,7.9-12.8,12
		c-0.5-0.6-1.5-1.8-2.6-3c3.7-4.6,7.3-9,11.2-13.8C163.3,316,164.6,317.5,166,319.1z"/>
	
		<linearGradient id="SVGID_00000149346338185356171960000013020848552519050370_" gradientUnits="userSpaceOnUse" x1="214.634" y1="202.8235" x2="214.634" y2="93.2909">
		<stop  offset="0" style="stop-color:#F0A585"/>
		<stop  offset="1" style="stop-color:#F37679"/>
	</linearGradient>
	<path style="fill:url(#SVGID_00000149346338185356171960000013020848552519050370_);" d="M269.5,103
		c-33.3,33.3-66.4,66.4-99.8,99.8c-3.1-9.5-6.2-18.9-9.3-28.3c-1.5-4.3,0.5-7.2,3.3-10c16.6-16.6,33.3-33.2,49.9-49.8
		c6-6,12-11.9,17.9-17.9c3.3-3.4,6.9-4.3,11.4-2.7C251.7,97.2,260.7,100.1,269.5,103z"/>
	
		<linearGradient id="SVGID_00000090282608797008315670000004724400455939077773_" gradientUnits="userSpaceOnUse" x1="268.3955" y1="367.9735" x2="268.3955" y2="335.7931">
		<stop  offset="0" style="stop-color:#F0A585"/>
		<stop  offset="1" style="stop-color:#F37679"/>
	</linearGradient>
	<path style="fill:url(#SVGID_00000090282608797008315670000004724400455939077773_);" d="M339.1,368H197.7c0.5-1.2,0.8-2.3,1.2-3.3
		c3.5-7.1,7.3-14.2,10.6-21.4c2.4-5.4,6.2-7.5,12-7.4c31,0.2,62.1,0.1,93.1,0.1c1.6,0,3.5-0.2,4.9,0.5c2,0.9,4.4,2,5.3,3.7
		C329.7,349,334.1,358.2,339.1,368z"/>
	
		<linearGradient id="SVGID_00000165209756939020898900000010386644945619905959_" gradientUnits="userSpaceOnUse" x1="363.8433" y1="130.2535" x2="363.8433" y2="114.3108">
		<stop  offset="0" style="stop-color:#F0A585"/>
		<stop  offset="1" style="stop-color:#F37679"/>
	</linearGradient>
	<path style="fill:url(#SVGID_00000165209756939020898900000010386644945619905959_);" d="M371.8,122.3c0.1,4.3-3.7,8-8,8
		c-4.2,0-7.8-3.4-7.9-7.6c-0.2-4.3,3.5-8.2,7.7-8.4C367.7,114.2,371.8,118.1,371.8,122.3z"/>
	
		<linearGradient id="SVGID_00000061433741615365250700000008819977399495909560_" gradientUnits="userSpaceOnUse" x1="391.7989" y1="455.7353" x2="391.7989" y2="439.7022">
		<stop  offset="0" style="stop-color:#F0A585"/>
		<stop  offset="1" style="stop-color:#F37679"/>
	</linearGradient>
	<path style="fill:url(#SVGID_00000061433741615365250700000008819977399495909560_);" d="M399.7,447.7c0,4.2-4,8.1-8.2,8
		c-4.3-0.1-7.9-3.9-7.7-8.3c0.1-4.3,4-7.9,8.3-7.7C396.2,439.9,399.8,443.7,399.7,447.7z"/>
	
		<linearGradient id="SVGID_00000127766300151880663460000017186365900427352987_" gradientUnits="userSpaceOnUse" x1="168.5222" y1="455.7276" x2="168.5222" y2="439.7035">
		<stop  offset="0" style="stop-color:#F0A585"/>
		<stop  offset="1" style="stop-color:#F37679"/>
	</linearGradient>
	<path style="fill:url(#SVGID_00000127766300151880663460000017186365900427352987_);" d="M176.5,447.8c-0.1,4.2-4.2,8.1-8.2,7.9
		c-4.3-0.2-7.9-4.1-7.7-8.4c0.2-4.1,3.9-7.7,8-7.7C172.7,439.7,176.6,443.6,176.5,447.8z"/>
</g>
</svg>
