<?xml version="1.0" encoding="utf-8"?>
<!-- Generator: Adobe Illustrator 26.0.0, SVG Export Plug-In . SVG Version: 6.00 Build 0)  -->
<svg version="1.1" id="Layer_1" xmlns="http://www.w3.org/2000/svg" xmlns:xlink="http://www.w3.org/1999/xlink" x="0px" y="0px"
	 viewBox="0 0 512 512" style="enable-background:new 0 0 512 512;" xml:space="preserve">
<style type="text/css">
	.st0{fill:url(#SVGID_1_);}
	.st1{fill:url(#SVGID_00000165204811742280349600000000464640069651741089_);}
	.st2{fill:url(#SVGID_00000011008305796277174150000005834263175167422616_);}
	.st3{fill:url(#SVGID_00000023271499342523961510000009586216374106533769_);}
	.st4{fill:url(#SVGID_00000162350786925881824520000017622158096138430352_);}
	.st5{fill:url(#SVGID_00000106838045741766643890000009349446933222610342_);}
	.st6{fill:url(#SVGID_00000165226691261649601420000007880661647123557000_);}
	.st7{fill:url(#SVGID_00000026883160101668609250000001233758852484157871_);}
</style>
<g>
	<g>
		<linearGradient id="SVGID_1_" gradientUnits="userSpaceOnUse" x1="241.46" y1="446.02" x2="241.46" y2="304.7">
			<stop  offset="0" style="stop-color:#F0A585"/>
			<stop  offset="1" style="stop-color:#F37679"/>
		</linearGradient>
		<path class="st0" d="M378.8,357.5v66.2h30.8V446h-84.7v-22.2h30.8v-66H127.6v65.9h30.8V446H73.5v-21.9h30.8v-66.5h-4.3
			c-15.2,0-30.4,0-45.7,0c-1.5,0-3-0.2-4.4-0.4v-52.4c1.8,0,3.5-0.1,5.2-0.1h377.7v52.8H378.8z"/>
		
			<linearGradient id="SVGID_00000031199944695733019210000004154567975039298227_" gradientUnits="userSpaceOnUse" x1="241.52" y1="145.25" x2="241.52" y2="63">
			<stop  offset="0" style="stop-color:#F0A585"/>
			<stop  offset="1" style="stop-color:#F37679"/>
		</linearGradient>
		<path style="fill:url(#SVGID_00000031199944695733019210000004154567975039298227_);" d="M355.3,145.1c-11.7,0-23.3-0.1-34.9,0.1
			c-2.6,0-2.6-1.9-3.1-3.4c-6.2-17.2-18.4-27.7-36.3-30.7c-22.3-3.8-43.5,9.6-50.6,31c-0.8,2.3-1.7,3.1-4.1,3.1
			c-32.4,0-64.8,0-97.3,0c-0.4,0-0.7-0.1-1.4-0.3c2.6-9.3,5.1-18.5,7.6-27.7c2.8-10.3,5.6-20.6,8.5-31c3.2-11.8,10.6-19.5,22.6-22.6
			c0.4-0.1,0.8-0.5,1.2-0.7h148.2c0.4,0.2,0.8,0.6,1.2,0.7c11.8,3.1,19.2,10.6,22.4,22.2c5.3,19,10.5,38.1,15.8,57.2
			C355.2,143.7,355.2,144.4,355.3,145.1z"/>
		
			<linearGradient id="SVGID_00000116196986765021107110000013414746292576347579_" gradientUnits="userSpaceOnUse" x1="241.6271" y1="232.81" x2="241.6271" y2="167.4825">
			<stop  offset="0" style="stop-color:#F0A585"/>
			<stop  offset="1" style="stop-color:#F37679"/>
		</linearGradient>
		<path style="fill:url(#SVGID_00000116196986765021107110000013414746292576347579_);" d="M359.5,178.9c0-8.3-3.2-11.4-11.6-11.4
			c-70.8,0-141.7,0-212.5,0c-8.6,0-11.6,3.1-11.7,11.8c0,16.6,0,33.2,0,49.8v3.8h235.6c0.1-1.2,0.2-2.3,0.2-3.4
			C359.5,212.6,359.6,195.7,359.5,178.9z M181.1,211.1c-6,0-11.3-5.5-11.3-11.7c0-5.5,5.5-10.7,11.3-10.7c6.2,0,11.2,5.2,11.2,11.6
			C192.2,205.9,186.9,211.1,181.1,211.1z M266.2,211h-49v-22h49V211z M302,211.1c-6-0.1-11.1-5.6-11-11.8
			c0.1-5.7,5.4-10.6,11.4-10.6c6,0.1,11.2,5.6,11.1,11.7C313.3,206,307.7,211.2,302,211.1z"/>
		
			<linearGradient id="SVGID_00000039112666804529056510000005465747457128415929_" gradientUnits="userSpaceOnUse" x1="82.1" y1="282.15" x2="82.1" y2="186.56">
			<stop  offset="0" style="stop-color:#F0A585"/>
			<stop  offset="1" style="stop-color:#F37679"/>
		</linearGradient>
		<polygon style="fill:url(#SVGID_00000039112666804529056510000005465747457128415929_);" points="101.2,186.6 101.2,208.8 
			85.3,208.8 85.3,282.1 63,282.1 63,186.6 		"/>
		
			<linearGradient id="SVGID_00000172410569380317529280000016786063575357128608_" gradientUnits="userSpaceOnUse" x1="400.85" y1="282.04" x2="400.85" y2="186.54">
			<stop  offset="0" style="stop-color:#F0A585"/>
			<stop  offset="1" style="stop-color:#F37679"/>
		</linearGradient>
		<polygon style="fill:url(#SVGID_00000172410569380317529280000016786063575357128608_);" points="419.6,186.5 419.6,282 
			397.5,282 397.5,208.9 382.1,208.9 382.1,186.5 		"/>
		
			<linearGradient id="SVGID_00000131329641424713410590000002971350647696824962_" gradientUnits="userSpaceOnUse" x1="153.19" y1="281.91" x2="153.19" y2="260.17">
			<stop  offset="0" style="stop-color:#F0A585"/>
			<stop  offset="1" style="stop-color:#F37679"/>
		</linearGradient>
		
			<rect x="124.2" y="260.2" style="fill:url(#SVGID_00000131329641424713410590000002971350647696824962_);" width="58" height="21.7"/>
		
			<linearGradient id="SVGID_00000111182688120051028950000017742005893411195299_" gradientUnits="userSpaceOnUse" x1="329.765" y1="281.93" x2="329.765" y2="260.15">
			<stop  offset="0" style="stop-color:#F0A585"/>
			<stop  offset="1" style="stop-color:#F37679"/>
		</linearGradient>
		
			<rect x="300.7" y="260.1" style="fill:url(#SVGID_00000111182688120051028950000017742005893411195299_);" width="58" height="21.8"/>
		
			<linearGradient id="SVGID_00000103262456169077957030000009730782395047735725_" gradientUnits="userSpaceOnUse" x1="273.805" y1="144.87" x2="273.805" y2="132.8216">
			<stop  offset="0" style="stop-color:#F0A585"/>
			<stop  offset="1" style="stop-color:#F37679"/>
		</linearGradient>
		<path style="fill:url(#SVGID_00000103262456169077957030000009730782395047735725_);" d="M293.9,144.9h-40.2
			c4.6-7.8,11.2-11.5,19.6-12C281.6,132.3,290.5,137.5,293.9,144.9z"/>
	</g>
</g>
</svg>
