<svg xmlns="http://www.w3.org/2000/svg" xmlns:xlink="http://www.w3.org/1999/xlink" viewBox="0 0 1349.84 975.86"><defs><radialGradient id="bf5c5685-4922-4e56-919a-ef5dd8452a48" cx="1222.86" cy="682.05" r="109.86" gradientTransform="translate(0 341.03) scale(1 0.5)" gradientUnits="userSpaceOnUse"><stop offset="0" stop-color="#2a2b49" stop-opacity="0.4"/><stop offset="1" stop-color="#ededf7" stop-opacity="0"/></radialGradient><radialGradient id="fef9f6e9-c0ef-4976-8632-e0d82322209c" cx="874.8" cy="890.68" r="109.99" gradientTransform="translate(0 445.34) scale(1 0.5)" xlink:href="#bf5c5685-4922-4e56-919a-ef5dd8452a48"/><radialGradient id="ac85f97c-6503-4d22-a496-396fd6efb931" cx="633.11" cy="497.35" r="535.02" gradientTransform="translate(0 248.68) scale(1 0.5)" xlink:href="#bf5c5685-4922-4e56-919a-ef5dd8452a48"/><linearGradient id="b8053d95-6c08-4af9-8aa5-8e6ab5ce56a3" x1="952.6" y1="498.3" x2="871.31" y2="445.62" gradientUnits="userSpaceOnUse"><stop offset="0" stop-color="#f4a77f"/><stop offset="0.37" stop-color="#f2857a"/><stop offset="0.77" stop-color="#f16775"/><stop offset="1" stop-color="#f05b73"/></linearGradient><linearGradient id="be912f1e-41ad-4166-8b60-5e8a79962014" x1="759.31" y1="446.87" x2="1243.56" y2="171.58" gradientTransform="translate(-403.71)" gradientUnits="userSpaceOnUse"><stop offset="0" stop-color="#4294d1"/><stop offset="1" stop-color="#3e4a9f"/></linearGradient><linearGradient id="e3461135-a71b-4853-88ec-483c4b2c976b" x1="1079.04" y1="349.41" x2="1112.44" y2="349.41" gradientTransform="translate(-403.71)" gradientUnits="userSpaceOnUse"><stop offset="0" stop-color="#f4a77f"/><stop offset="1" stop-color="#f05b73"/></linearGradient><linearGradient id="b0b23f35-6e66-4018-9c2c-50f91b834bac" x1="1244.77" y1="253.73" x2="1278.16" y2="253.73" xlink:href="#e3461135-a71b-4853-88ec-483c4b2c976b"/><linearGradient id="fd3c8375-efb7-4193-83de-034919e3df36" x1="663.64" y1="583.86" x2="775.18" y2="583.86" gradientTransform="translate(-403.71)" gradientUnits="userSpaceOnUse"><stop offset="0.01" stop-color="#ededf7"/><stop offset="1" stop-color="#bdc2e3"/></linearGradient><linearGradient id="aa18cc2b-8a1c-45f3-9a21-7c46f8da292d" x1="758.69" y1="584.45" x2="780.22" y2="584.45" xlink:href="#e3461135-a71b-4853-88ec-483c4b2c976b"/><linearGradient id="f67fe45c-0abd-4b71-85a9-9883f3a90068" x1="507.43" y1="458.63" x2="533.05" y2="458.63" xlink:href="#fd3c8375-efb7-4193-83de-034919e3df36"/><linearGradient id="b9d64c27-b0ce-42ac-8619-0257ed5eba97" x1="829.24" y1="330.07" x2="1008.32" y2="19.9" gradientTransform="translate(-403.71)" gradientUnits="userSpaceOnUse"><stop offset="0" stop-color="#4492cf"/><stop offset="0.16" stop-color="#438ccb"/><stop offset="0.37" stop-color="#427abf"/><stop offset="0.62" stop-color="#405dac"/><stop offset="0.75" stop-color="#3e4a9f"/></linearGradient><linearGradient id="a41562fb-ddd7-4381-b297-a5622e541d0b" x1="874.86" y1="265.59" x2="1201.87" y2="68.72" xlink:href="#fd3c8375-efb7-4193-83de-034919e3df36"/><linearGradient id="eaf552fd-1188-4fb8-ad70-e4c6f4bd6d14" x1="1454.73" y1="179" x2="1470.06" y2="179" xlink:href="#e3461135-a71b-4853-88ec-483c4b2c976b"/><linearGradient id="a9c59af7-da5f-4a49-8482-83d9cc8d7db2" x1="810.76" y1="344.29" x2="1181.15" y2="84.02" gradientTransform="translate(-403.71)" gradientUnits="userSpaceOnUse"><stop offset="0" stop-color="#3e4a9f"/><stop offset="1" stop-color="#4173b9"/></linearGradient><linearGradient id="a6e07cff-b100-43b8-88d7-1886968af8c8" x1="926.89" y1="352.02" x2="1253.9" y2="155.15" xlink:href="#fd3c8375-efb7-4193-83de-034919e3df36"/><linearGradient id="e7a41625-edaa-4459-93b0-c9829d80a845" x1="875.88" y1="267.28" x2="1202.89" y2="70.41" xlink:href="#fd3c8375-efb7-4193-83de-034919e3df36"/><linearGradient id="bc92db8a-2fb8-4794-827b-f8012f9e10ed" x1="693.69" y1="435.46" x2="894.38" y2="435.46" gradientTransform="translate(-403.71)" gradientUnits="userSpaceOnUse"><stop offset="0" stop-color="#393694"/><stop offset="1" stop-color="#272465"/></linearGradient><linearGradient id="fb30bd6c-ee61-442f-afb3-3956d1f6cd4a" x1="607.98" y1="359.81" x2="725.12" y2="359.81" xlink:href="#bc92db8a-2fb8-4794-827b-f8012f9e10ed"/><linearGradient id="b3c7b99f-a5bb-4d17-a595-f4a9d17341b8" x1="509.9" y1="607.24" x2="739.43" y2="607.24" xlink:href="#fd3c8375-efb7-4193-83de-034919e3df36"/><linearGradient id="f5663247-0a50-43c8-af4a-4f1d3daf46a0" x1="823.77" y1="536.04" x2="935.76" y2="536.04" xlink:href="#b8053d95-6c08-4af9-8aa5-8e6ab5ce56a3"/><linearGradient id="be38463a-29a2-47e3-9ccf-566c64a8e97c" x1="877.86" y1="648.47" x2="881.51" y2="528.48" gradientUnits="userSpaceOnUse"><stop offset="0.21" stop-color="#4284c5"/><stop offset="0.38" stop-color="#4174bb"/><stop offset="0.78" stop-color="#3f56a7"/><stop offset="1" stop-color="#3e4a9f"/></linearGradient><linearGradient id="b55dbd77-0600-4c0c-ba4e-9f172e8e58cf" x1="919.72" y1="558.92" x2="994.63" y2="558.92" gradientUnits="userSpaceOnUse"><stop offset="0" stop-color="#f4a77f"/><stop offset="0.06" stop-color="#f4a17e"/><stop offset="0.51" stop-color="#f37878"/><stop offset="0.76" stop-color="#f16775"/><stop offset="1" stop-color="#f05b73"/></linearGradient><linearGradient id="acb74844-c2c2-4121-add5-ac49197b46c5" x1="866.51" y1="378.81" x2="929.24" y2="378.81" xlink:href="#b8053d95-6c08-4af9-8aa5-8e6ab5ce56a3"/><linearGradient id="b2cf6f50-f352-44d6-8e6b-03a5e53dc568" x1="900.18" y1="376.58" x2="875.65" y2="382.26" xlink:href="#b8053d95-6c08-4af9-8aa5-8e6ab5ce56a3"/></defs><g id="ef5517c3-c362-42b9-92fc-30505e65696c" data-name="Layer 2"><g id="a6cd18cd-71bf-4f99-82f5-bff851c447f6" data-name="Layer 1"><polygon points="1349.84 612.04 1185.21 592.52 1095.89 720.36 1275.43 771.59 1349.84 612.04" style="fill:url(#bf5c5685-4922-4e56-919a-ef5dd8452a48)"/><polygon points="1004.96 825.02 840.33 805.5 744.64 926.04 929.24 975.86 1004.96 825.02" style="fill:url(#fef9f6e9-c0ef-4976-8632-e0d82322209c)"/><polygon points="1266.22 178 465.47 83.03 0 669.37 897.94 911.67 1266.22 178" style="fill:url(#ac85f97c-6503-4d22-a496-396fd6efb931)"/><path d="M982.76,455.45s11-3.53,14.87-7.44,6.66-9.39,13.7-6.26,9.78,5.87,12.52,5.87,9,6.65,3.91,9.39-7.82,8.22-14.48,9.78-25.82,9-25.82,9Z" style="fill:#fbcdc3"/><path d="M833.68,440.19s84.52,16.43,104.48,11.73,44.6,3.53,44.6,3.53,10.57,14.08,3.53,23.47-55.18,28.18-88,22.31-56.35-5.87-65.74-21.13S812.55,449.58,833.68,440.19Z" style="fill:url(#b8053d95-6c08-4af9-8aa5-8e6ab5ce56a3)"/><path d="M1209.48,244.24h0a46.31,46.31,0,0,0-38.19,22.66l-29,52.59,25,30.52,41.87-68.09,1.56-35.21Z" style="fill:#393694"/><path d="M1241.65,713l-.72,5.32a28.44,28.44,0,0,0,26,3.68c14.94-5.2,19.92-11.7,25.77-11.7a96.52,96.52,0,0,0,13.43-1.3l.18-6.23-24.22-3.73Z" style="fill:#e0e5f2"/><path d="M1150.18,658.14l-.43,6.06s11.26,9.31,24.47,4.12,15.6-12.13,24-12.56,16.25-1.52,16.25-1.52l.38-4.78s-20.52,0-21.39.23S1150.18,658.14,1150.18,658.14Z" style="fill:#e0e5f2"/><path d="M1244.17,706.86c8.67-3.67,27.27-12.66,28.82-19.56,0,0,25.45,1.23,31.62-6.1l1.69,21.6s-13,3.72-17.66,2.38-24.91,24.17-47,8l0-.1A4.72,4.72,0,0,1,1244.17,706.86Z" style="fill:#2a2b49"/><path d="M1152.94,653.5c8.65-3.65,27.19-12.62,28.74-19.49,0,0,25.37,1.23,31.52-6.08l1.69,21.53s-12.93,3.71-17.61,2.37-24.83,24.1-46.81,7.92l0-.09A4.72,4.72,0,0,1,1152.94,653.5Z" style="fill:#2a2b49"/><path d="M1196.31,420.89s-11.89,98.58-13.63,139.56,0,71.82,0,71.82-3.61,7,13.63,8.71l7.58.76c5.26.52,9.84-3.88,10.08-9.72.73-17.9,5.64-56.54,3-74.62,1.44-24.32,37.2-129.42,37.2-129.42Z" style="fill:#252569"/><path d="M1285.17,428s-1.46,100.64.62,130.3c10.59,30,19.77,127.39,19.77,127.39s-18.64,13.25-33.2,3.93c0,0-19.23-98-25.77-146.85s-14.41-98.65-14.41-98.65Z" style="fill:#393694"/><path d="M1209.17,244.23l13.69-1.45,28.15-2.41,44.79,14.45-4.22,149.37L1285,433a77.71,77.71,0,0,1-39.76,11.14h-13c-10.24,0-32.53-8.71-41.64-14.31l-.58-35.23Z" style="fill:#393694"/><path d="M1195.79,246.58s-2.52,65.52-5.55,82.16,2.61,75.76,2.61,75.76,12-96.43,10-104S1195.79,246.58,1195.79,246.58Z" style="fill:#393694"/><path d="M1215.3,242.6s5.09,56,9,63.19a50.06,50.06,0,0,0,7.44,10.76s12.71-9,22.89-34.43S1265,244.55,1265,244.55l-11.15-4.11L1222,241.62Z" style="fill:#e0e5f2"/><path d="M1226.06,250.42s9.39,1.37,14.48-.39l3.13,4.7-5.09,4.59-7.82-.09-5.87-5.48Z" style="fill:#393694"/><polygon points="1231.15 254.34 1224.3 305.79 1232.32 322.62 1242.3 306.18 1237.61 255.51 1231.15 254.34" style="fill:#393694"/><path d="M1251,214.3v26.07s-7.74,13.84-15.76,13.36-12.39-7.26-12.39-7.26v-20.8Z" style="fill:#fbcdc3"/><path d="M1250.52,235l5.28,7.43s-3.91,12.91-9.78,15.65l-7-8.61S1248.76,244.16,1250.52,235Z" style="fill:#e0e5f2"/><path d="M1222,241.62s2.24,7.92,8.11,7.92l-4.59,6.75s-7.24-4.69-7.24-9.19A5.41,5.41,0,0,1,1222,241.62Z" style="fill:#e0e5f2"/><path d="M1249.74,215.4s-3.91,16.24-8.51,20.74-9.59,6.46-14.68,6-5.28-4.89-5.28-4.89Z" style="fill:#dba9a1"/><path d="M1209.62,188.33s2.42,45.66,10,50.5,24.65-1.78,29.89-19.44,3.06-10.35,3.06-10.35,8.74-1.26,9.17-9.48-3.23-9.17-6.55-10.16-6.11,4.75-6.11,4.75l-6.17-20.71-34.17-1.14Z" style="fill:#fbcdc3"/><path d="M1251.23,191.77s-2.82,12.93-6.06,12.12.41-9.3-.4-14.55-5.66-7.27-5.66-12.93c0,0-18.58,6.87-24.24,4s-7.07-6.87-7.07-6.87,5.86-12.93,22.42-15.75,28.89,3.83,32.93,19.59-1.21,32.93-12.93,36.57Z" style="fill:#2a2b49"/><path d="M1249.62,211.16s8.48-6.46,6.87-14.55-5.26-5.25-8.08-.8S1249.62,211.16,1249.62,211.16Z" style="fill:#fbcdc3"/><path d="M1247.47,199.47s-4.7,2.93-8.15,3.56l.42,2.19s5.64-1.46,7.94-3.24Z" style="fill:#abb1d9"/><path d="M1250.71,210.55s-4.6,4.7-7.63,4.7l.31,2.4s5.23-2,7.21-4.28Z" style="fill:#abb1d9"/><path d="M1239.32,203l4.2,12.95a8.47,8.47,0,0,1-.23,5.89c-2.39,5.77-8.68,19-18.81,18.89-13.37-.21-14.52-34.65-14.52-34.65s3.19-2.25,9.87-3.29S1239.32,203,1239.32,203Z" style="fill:#e0e5f2"/><path d="M1309,441.57s9.91,25,6.26,29.21-1,6.79-7.31,7.83-12.52-2.09-13-5.74a127.59,127.59,0,0,1-.52-13.56c0-2.61,2.61-14.09,2.61-14.09Z" style="fill:#fbcdc3"/><path d="M1295.32,429.44l-.78,17.22s14.09,3.52,18.78,1.17V431Z" style="fill:#e0e5f2"/><path d="M1295.8,254.82l4.5,1.87a18.51,18.51,0,0,1,11.1,13.7c4,21.43,13,70.87,12.23,77.79-1.05,8.87-8.35,87.91-8.35,87.91s-15.65,2.09-24.52,0l3.65-88.43s-6.26-83.48-4.7-87.65S1295.8,254.82,1295.8,254.82Z" style="fill:#393694"/><path d="M1032.67,245.85l9.77-5.64a5.39,5.39,0,0,0,2.59-4.08V235c0-1.43-1.16-1.92-2.59-1.1l-9.77,5.64a5.4,5.4,0,0,0-2.58,4.08v1.12C1030.09,246.18,1031.25,246.67,1032.67,245.85Z" style="fill:#ca6028"/><path d="M338.75,194.7c-1.88-2.57-4.67-5.26-7.77-4.54a4.83,4.83,0,0,0-2.75,1.84c-1.32,1.72-3,16.58-3.08,18.86-.2,11.55,1.61,20.15,2.75,22.77a10.25,10.25,0,0,0,5.92,5.84c5.24,1.66,10.68-2.76,12.82-7.83,2.37-5.6,3.78-12.55,1.68-18.26A74,74,0,0,0,338.75,194.7Z" style="fill:#2a2b49"/><polygon points="395.08 500.49 541.29 584.9 575.01 534.01 557.87 496.94 506.81 462.32 395.08 500.49" style="fill:#2a2b49"/><path d="M959.62,200.89l51.06,34.62,1.55,3.35A68.34,68.34,0,0,1,1008,304L995.3,324.1l-147.41-85Z" style="fill:#2a2b49"/><g id="b157a9c8-5cc5-4b2d-a305-774cef76eced" data-name="Axonometric Cylinder"><path d="M442.25,521.4c14.34-8.28,27.3-9,36.61-3.4L511,536.54,437.76,661.8l-32.11-18.54c-9.09-5.44-14.7-16.85-14.7-33C391,577.53,413.92,537.75,442.25,521.4Z" style="fill:#22233d"/><path id="bda9dc0f-9d95-4f94-bbf9-878b3a866ba0" data-name="Cylinder face" d="M423.07,628.79c0,32.71,23,46,51.3,29.62s51.3-56.14,51.3-88.85-23-46-51.3-29.62S423.07,596.08,423.07,628.79Z" style="fill:#424361"/></g><g style="isolation:isolate"><path d="M474.46,641.44c19.52-10.8,35.62-38.05,36-60.85s-15.21-32.54-34.72-21.74-35.62,38-36,60.85S454.94,652.24,474.46,641.44Z" style="fill:#d8d9d8"/><path d="M474.55,635.65c16.78-9.29,30.62-32.71,30.92-52.32s-13.08-28-29.86-18.69S445,597.35,444.69,617,457.77,644.93,474.55,635.65Z" style="fill:#a9a8a8"/><path d="M473.05,619.2c9.49-5.25,17.31-18.48,17.48-29.57s-7.39-15.81-16.88-10.56-17.3,18.49-17.47,29.57S463.57,624.45,473.05,619.2Z" style="fill:#d8d9d8"/><path d="M448.33,610c0,.59,0,1.17,0,1.73.56,13.19,10.1,18.59,21.95,12,12.36-6.83,22.55-24.08,22.76-38.51s-9.62-20.6-22-13.76c-6.55,3.62-12.49,10.17-16.66,17.67C450.74,595.81,448.43,603.21,448.33,610Zm7.85-1.35a29.92,29.92,0,0,1,1.31-8,39.44,39.44,0,0,1,3.37-8c3.2-5.76,7.77-10.79,12.79-13.57,9.49-5.25,17-.52,16.88,10.56s-8,24.32-17.48,29.57c-9.09,5-16.42.89-16.85-9.24C456.18,609.53,456.17,609.09,456.18,608.64Z" style="fill:#bfbebe"/></g><g id="b32e9a27-690d-4cb5-b4c1-40fb1a51c87a" data-name="Axonometric Cylinder"><path d="M891.93,261.78c14.33-8.28,27.29-9,36.6-3.4l32.12,18.54L887.44,402.18l-32.12-18.54c-9.09-5.44-14.69-16.85-14.69-33C840.63,317.91,863.6,278.13,891.93,261.78Z" style="fill:#22233d"/><path id="e8885573-a865-4776-a14a-8ef5367dd490" data-name="Cylinder face" d="M872.75,369.17c0,32.71,23,46,51.29,29.62s51.3-56.14,51.3-88.85-23-46-51.3-29.62S872.75,336.46,872.75,369.17Z" style="fill:#424361"/></g><g style="isolation:isolate"><path d="M924.14,381.82c19.52-10.8,35.62-38.05,36-60.85s-15.21-32.54-34.73-21.74-35.62,38-36,60.85S904.62,392.62,924.14,381.82Z" style="fill:#d8d9d8"/><path d="M924.22,376c16.79-9.29,30.63-32.71,30.92-52.32s-13.07-28-29.85-18.69-30.63,32.71-30.92,52.32S907.44,385.31,924.22,376Z" style="fill:#a9a8a8"/><path d="M922.73,359.58C932.21,354.33,940,341.1,940.2,330s-7.39-15.81-16.87-10.56S906,337.94,905.85,349,913.24,364.83,922.73,359.58Z" style="fill:#d8d9d8"/><path d="M898,350.37c0,.59,0,1.17,0,1.73.57,13.19,10.11,18.59,22,12,12.35-6.83,22.54-24.08,22.76-38.51s-9.63-20.6-22-13.76c-6.55,3.62-12.49,10.17-16.66,17.67C900.41,336.19,898.11,343.59,898,350.37Zm7.84-1.35a30.32,30.32,0,0,1,1.31-8,40.06,40.06,0,0,1,3.38-8c3.2-5.76,7.76-10.79,12.79-13.57,9.48-5.25,17-.52,16.87,10.56s-8,24.32-17.47,29.57c-9.1,5-16.42.89-16.86-9.24C905.85,349.91,905.85,349.47,905.85,349Z" style="fill:#bfbebe"/></g><path d="M126.84,397.9c16.31-25.19,46.95-53,71.91-69.69,70.64-47.14,100.14-73.28,164.19-127.86,22.26-19,76.35-29.83,99.83-47.26,10-7.39,323.09-132.69,323.09-132.69l39-19.55S833-2.6,845.65,4.38c29.28,16.2,162.69,94.17,193.25,112a38.32,38.32,0,0,1,13,12.18,32.18,32.18,0,0,1,4.08,8.16c2.36,8.78,6.14,18.32,6.14,25.7v88a39.93,39.93,0,0,1-5.2,19.81c-5.7,10-48.8,44.36-61.69,53.95-.21-51.84-17-84.13-67-55.28-47.32,27.32-67,81.17-67,133.61l-320,182.44c-.5-51.06-17.37-82.58-66.92-54-46.18,26.67-65.94,78.59-66.88,129.81-17.65,9.89-8.81,4.44-14.82,7.5a120.26,120.26,0,0,1-53.29,13.49c-63.65.57-113.64-26-160-56.17-33.88-22.1-60.11-44.6-72.95-64.84-5.61-8.83-8-19.3-7.77-29.76C99.22,503.16,99.44,440.19,126.84,397.9Z" style="fill:url(#be912f1e-41ad-4166-8b60-5e8a79962014)"/><path d="M1062.13,248.89v1.48a39.93,39.93,0,0,1-5.2,19.81c-5.7,10-48.8,44.36-61.69,53.95,0-13-1.14-24.71-3.53-34.59ZM537.75,551.64c2.3,9.54,3.42,20.8,3.54,33.26l320-182.44a199.18,199.18,0,0,1,4-39.95Z" style="fill:#4395d1"/><path d="M251.72,550.63c-3.08,10.09-13.44,33.89-20.16,32.46-30-6.38-90-50.17-98.71-67-3-5.87,8.34-42.54,11.87-43.47a253.66,253.66,0,0,0,53.89,45.85C225.63,535.34,253.06,546.23,251.72,550.63Z" style="fill:#2a67b2"/><path d="M198.61,518.51c15.31,9.54,30.95,16.76,41.28,22,7.89,4,12.68,6.56,11.83,10.1-2,8.5-10.09,25.94-16.42,31-30.17-6.72-89.56-50.13-98.24-66.83-2.53-4.88,4.88-30.92,9.49-40.17A253.24,253.24,0,0,0,198.61,518.51Z" style="fill:#22233d"/><path d="M678.17,362.21l27.72-16a5.89,5.89,0,0,0,2.84-4.48V337.8c0-1.57-1.27-2.1-2.84-1.2l-27.72,16a5.86,5.86,0,0,0-2.84,4.47V361C675.33,362.58,676.6,363.12,678.17,362.21Z" style="fill:url(#e3461135-a71b-4853-88ec-483c4b2c976b)"/><path d="M843.89,266.53l27.72-16a5.86,5.86,0,0,0,2.84-4.47v-3.93c0-1.57-1.27-2.1-2.84-1.2l-27.72,16a5.86,5.86,0,0,0-2.84,4.47v3.93C841.05,266.9,842.32,267.43,843.89,266.53Z" style="fill:url(#b0b23f35-6e66-4018-9c2c-50f91b834bac)"/><path d="M553,522.79l9.77-5.64a5.37,5.37,0,0,0,2.59-4.08V512c0-1.43-1.16-1.92-2.59-1.09L553,516.5a5.37,5.37,0,0,0-2.58,4.08v1.12C550.41,523.12,551.57,523.61,553,522.79Z" style="fill:#2a67b2"/><path d="M277.88,558.57c-11.8-1.46-25.67,31.39-12.79,38.68,12.58,7.13,45.38,15.41,89.89,10.44,19.07-6.2,23.43-44.58,3.29-46.44C344.21,562,322.75,564.11,277.88,558.57Z" style="fill:url(#fd3c8375-efb7-4193-83de-034919e3df36)"/><path d="M358.27,561.25c30.68-1.68,17.83,44.08-3.29,46.44C361.77,599.17,367.53,569.84,358.27,561.25Z" style="fill:url(#aa18cc2b-8a1c-45f3-9a21-7c46f8da292d)"/><path d="M129.13,459.57c1.52,8.72-5.48,36.29-8.79,37.69-4.08,1.73-16.73-21.9-16.62-34,.1-10.41,5.54-34.85,11.81-43.37C119.85,439.05,128.21,454.31,129.13,459.57Z" style="fill:url(#f67fe45c-0abd-4b71-85a9-9883f3a90068)"/><path d="M102.17,469.23s7,51,36.31,76.73c22.64,19.91,55.87,48.08,98,60.58s118.34,17.69,144.89,10.66,36.64-15.8,36.64-15.8-10.95,32.75-10.56,59.33c0,0-27.3,18.53-68.11,21s-100.95-10.82-154-48.3-82-64.82-85.9-82.78S102.17,469.23,102.17,469.23Z" style="fill:#4395d1"/><path d="M194.3,536.73c-2.38,5.48-8.18,7.68-13,4.92s-6.71-9.43-4.33-14.9,8.18-7.68,13-4.92S196.69,531.26,194.3,536.73Z" style="fill:#d8d9d8"/><path d="M152,565.08l31.32,21a1,1,0,0,1,.43.81v9.62a1,1,0,0,1-1.51.8l-31.32-21a1,1,0,0,1-.43-.8v-9.62A1,1,0,0,1,152,565.08Z" style="fill:#fff"/><path d="M995.38,141.93,789.31,23,837.41,8.4s8.14-3.45,20.76,3.53c29.28,16.19,150.17,86.62,180.73,104.44a38.32,38.32,0,0,1,13,12.18c.23.35.41.72.64,1.08C1029.81,137.42,995.38,141.93,995.38,141.93Z" style="fill:#3e4a9f"/><path d="M478.34,116.69a11.69,11.69,0,0,0-14.19-.29C438.64,135.12,363.29,197,363.29,197s-71.14,55.54-79.87,85.49,48.05,61.78,148.51,119.18,120.44-19.34,120.44-19.34l94.51-140a19.11,19.11,0,0,0-6.81-27.53C535.94,159.07,493,128.29,478.34,116.69Zm60.3,258.82s-64.27,5-149.14-54.29c-45.7-31.92-65.7-49.19-74.43-58.33a11,11,0,0,1,1-16L462.39,126.05a11.83,11.83,0,0,1,14.34-.56C501.22,142.7,580.88,197.87,624.17,218a15.18,15.18,0,0,1,6.09,22.28Z" style="fill:url(#b9d64c27-b0ce-42ac-8619-0257ed5eba97)"/><path d="M463.85,124.85,319.24,244.24a14.74,14.74,0,0,0-.83,22c10.14,9.8,30.46,26.6,71.09,55,66.76,46.63,120.77,53.49,140.79,54.29A14.66,14.66,0,0,0,543,369.05l87.56-129.2a14.76,14.76,0,0,0-6.06-21.68c-44.15-20.45-126.75-77.87-149.31-93.76A9.35,9.35,0,0,0,463.85,124.85Z" style="fill:#2a2b49"/><path d="M462.42,132.14,322.86,244.62a13.68,13.68,0,0,0-.79,20.73c9.79,9.23,29.4,25,68.6,51.79,64.43,43.93,116.55,50.39,135.87,51.15a14.29,14.29,0,0,0,12.28-6.09l84.5-121.72a13.75,13.75,0,0,0-5.85-20.42c-42.61-19.26-122.33-73.36-144.1-88.33A9.2,9.2,0,0,0,462.42,132.14Z" style="fill:url(#a41562fb-ddd7-4381-b297-a5622e541d0b)"/><path d="M1060.42,151.43s12.23,23.53,1.54,55.08c-7.44,1.68-10.15-30.15-10.93-42.77a8.78,8.78,0,0,1,3.9-7.83Z" style="fill:url(#eaf552fd-1188-4fb8-ad70-e4c6f4bd6d14)"/><path d="M768.87,28,699,20.08a183.55,183.55,0,0,0-86.48,11h0a632.49,632.49,0,0,0-86.62,46.29l-57.48,36.73L650.76,232C685.51,190.64,836.22,118.8,836.22,118.8l47.25,70.28,85.12-52.32Z" style="fill:url(#a9c59af7-da5f-4a49-8482-83d9cc8d7db2)"/><path d="M574.39,369.45l368.48-218a3.87,3.87,0,0,0-.47-6.91c-19.45-8.1-76.66-28.27-131.28-11.75-55.2,16.69-112.84,60-141.94,80A58.49,58.49,0,0,0,652.74,230L569.13,364.06A3.88,3.88,0,0,0,574.39,369.45Z" style="fill:#2a2b49"/><path d="M581.48,358.54,938.25,149.69S873,116,814.75,136.37C770.24,152,698.4,199.38,673,216.8a47.7,47.7,0,0,0-13.45,14.06Z" style="fill:url(#a6e07cff-b100-43b8-88d7-1886968af8c8)"/><path d="M655,335.15c4.47,5.19.24,21.25-7.06,24.59a14.07,14.07,0,0,1-4.5,1c-15.08,1.66-35.71,1.88-43-6.49-2.2-2.51-2-4.11-1-7.16,1.45-4.54,6.58-23.75,10.53-25.85C613.36,319.41,652.33,332.06,655,335.15Z" style="fill:#2a2b49"/><path d="M583.6,348c1.34-.15,14.32-3.25,16.61-3.56,7.66-1.06,18.36,12.6,15.18,16.39-.83,1-34,3.12-35,3.2C575,364.39,576.46,348.83,583.6,348Z" style="fill:#2a2b49"/><path d="M846,115.6c14.91.21,52.38,4.73,74,7.87a1.49,1.49,0,0,0,1-2.76c-16.4-9.74-59-34.88-74.7-42.79-16.42-8.28-61.12-35-75.24-43.53a25.06,25.06,0,0,0-9.42-3.33c-15.54-2.2-62.63-8.74-83.34-10.23a2.36,2.36,0,0,0-1.37,4.42l156,86.85A27.6,27.6,0,0,0,846,115.6Z" style="fill:#2a2b49"/><path d="M841.6,111.27c13.83.19,48.56,4.38,68.63,7.28a1.39,1.39,0,0,0,.94-2.56c-15.2-9-54.7-32.28-69.25-39.6C826.7,68.73,785.26,44,772.17,36.1A23.28,23.28,0,0,0,763.44,33c-14.41-2-58.05-8.08-77.25-9.46a2.18,2.18,0,0,0-1.27,4.08L829.5,108A25.72,25.72,0,0,0,841.6,111.27Z" style="fill:url(#e7a41625-edaa-4459-93b0-c9829d80a845)"/><path d="M741,350.73c0-.16,0-16.29-.78-73.31-.76-55.78-18.05-100-18.22-100.45l13.21-8.83c.76,1.9,19,50.61,19.8,109.08.77,57.18.78,73.35.78,73.51Z" style="fill:#2c296f"/><path d="M883.88,300.36c0-.15,0-16.28-.78-73.31-.75-55.78-18-100-18.22-100.45l13.22-8.83c.76,1.9,19,50.61,19.79,109.09.77,57.17,1.59,64.56,1.59,64.72Z" style="fill:#272465"/><path d="M435.23,430.38c46.07-38.26,55.44-50,55.44-50S422,489,290,490.51C290,490.51,389.15,468.65,435.23,430.38Z" style="fill:url(#bc92db8a-2fb8-4794-827b-f8012f9e10ed)"/><path d="M204.27,431.55s17-52.71,44.51-84.33,72.63-59.16,72.63-59.16S264,310.9,242.93,339.6,204.27,431.55,204.27,431.55Z" style="fill:url(#fb30bd6c-ee61-442f-afb3-3956d1f6cd4a)"/><circle cx="290.76" cy="583.44" r="14.06" style="fill:#6699d1;opacity:0.36"/><ellipse cx="116.03" cy="465.33" rx="8.79" ry="13.47" style="fill:#6699d1;opacity:0.36"/><circle cx="327.85" cy="587.74" r="14.06" style="fill:#6699d1;opacity:0.36"/><path d="M106.21,541.7h0a24.23,24.23,0,0,0,4.7,15.31c9.82,13.34,33.83,40.81,58.67,57.66,32.39,22,84.51,61.48,156.23,61.32a10,10,0,0,0,9.91-10h0a10,10,0,0,0-9.86-10c-21.67-.28-78-5.57-152.11-53.59-31.44-20.36-52.1-48.1-61.42-62.44A3.33,3.33,0,0,0,106.21,541.7Z" style="fill:url(#b3c7b99f-a5bb-4d17-a595-f4a9d17341b8)"/><path d="M1080.62,407.18s-5.89-1.66-8.84,2.39-6.63,16.94-9.2,19.15-6.63,7.36-2.95,8.84,4,3.31,14.73,1.47S1095,428.72,1095,428.72l.74-4.05-1.84-16.2Z" style="fill:#fbcdc3"/><path d="M1087.24,393.23l-12.91,14.09s18,8.61,19.56,18l1.57,9.39,12.91-19.18S1108.76,388.54,1087.24,393.23Z" style="fill:#e0e5f2"/><path d="M1142.33,319.49l-55.09,73.74s5.87-3.52,12.91,5.87,8.22,16.43,8.22,16.43l59-65.52Z" style="fill:#393694"/><path d="M892.73,897.83l-2,24.73s1.22,3.54,8.86,3.48,4.84-2.34,19.35-4.3,36.56-19.38,40.24-21.5.75-12.25-14.9-8.6-31.15-.79-31.15-.79Z" style="fill:#2a2b49"/><path d="M825.77,857l-2,24.73s1.22,3.54,8.85,3.48,4.85-2.35,19.35-4.3,36.57-19.38,40.24-21.5.75-12.26-14.9-8.6-31.15-.79-31.15-.79Z" style="fill:#2a2b49"/><path d="M825.12,612.12S820.58,725,825.37,743c3.55,13.35,24.7,8.82,35.39,5.58a9.81,9.81,0,0,0,6.9-8.23l9.61-80.81Z" style="fill:#4284c5"/><path d="M823.77,607v28.29a50.8,50.8,0,0,0,24.7,43.59l9,3.91A25.92,25.92,0,0,1,872.6,701.2l17.63,82.32s23.86,8.39,43.54-5.16l2-20.27-.58-138Z" style="fill:#4284c5"/><path d="M909.45,391.23s3.15,38-10.45,48.3-31.37-12.08-31.37-24.15-3.86-40,15.69-42.25S909.16,384.36,909.45,391.23Z" style="fill:#fbcdc3"/><polygon points="868.38 420.36 864.05 449.03 889.61 449.34 889.79 430.7 868.38 420.36" style="fill:#fbcdc3"/><path d="M840,441.83l21.45-1.74L898,448.91l22.95,14.31a31.58,31.58,0,0,1,14.86,26.84l-.58,130h0a88.79,88.79,0,0,1-88.76,0L823.77,607l2.91-134.85C826.92,457.73,825.9,444.88,840,441.83Z" style="fill:url(#f5663247-0a50-43c8-af4a-4f1d3daf46a0)"/><path d="M890.27,782.45s-7.57,10.63-6.31,43.28,8.77,72.1,8.77,72.1l2.64,1.61a27.56,27.56,0,0,0,28.13.35h0s12.88-112.89,10.27-121.43S890.27,782.45,890.27,782.45Z" style="fill:#4284c5"/><path d="M825.12,741.13s-9.17,11.56-7.91,44.22S826,857.44,826,857.44l2.64,1.61a27.54,27.54,0,0,0,28.13.35h0S869.63,746.51,867,738,825.12,741.13,825.12,741.13Z" style="fill:#4284c5"/><path d="M955.67,532.53l5.88,37a22.23,22.23,0,0,0,2.65,7.55l31.13,64.38-12.57,8.48-44-66.87a41.6,41.6,0,0,1-4.76-11.9l-9.41-40.92Z" style="fill:#fbcdc3"/><path d="M982.76,649.91s.09,2.79,7.42,7.29,13.16,13,17.32,9.06S1008.84,641,993,639.35Z" style="fill:#fbcdc3"/><path d="M870.17,425.13l4.87,2.81a15.43,15.43,0,0,0,15.44,0l.72-1.23c.87-.51.69-.2.69-1.21l.1-15.8v-1.45a15.61,15.61,0,0,1,8.15-13.71l7.62-4.14a5.3,5.3,0,0,0,2.76-4.83l-.08-2.3a9.38,9.38,0,0,0-4.7-7.8l-4.62-2.68-2.6-1.27c-5.06-2.49-12.46-3.24-17.26-.3l-13,9.88a7.67,7.67,0,0,0-3.66,6.53h0a7.94,7.94,0,0,0-4.55,9.22l3,11.78C864,412.69,866.54,423,870.17,425.13Z" style="fill:#2a2b49"/><path d="M891.89,425.5s9-14,7.7-22.88c-.38-2.71-.53-6.77-1.7-7.3-2.69-1.21-8.09,4.6-8.09,4.6Z" style="fill:#2a2b49"/><path d="M899.72,410.84c-.18-2.15-4.28-4.8-6.43-4.78h0a5.85,5.85,0,0,0-6.23,4.11h0a8.44,8.44,0,0,0,1.82,8.11l10,9.65Z" style="fill:#fbcdc3"/><path d="M899.31,409.13l9.92,1.66s0,25.22-12.82,29.56l-4.13-18S898.89,420.92,899.31,409.13Z" style="fill:#f26b6b"/><path d="M891,420.64l2.75,1.65-.13,2.35s-5.52-3.59-4.28-6.07Z" style="fill:#f5f6f7"/><path d="M823.77,607l2.35-113.49s19.3-45.39,19.82-52.17l17.22-1.57L898,448.91l16.34,9.14s-19.31,60-6.78,78.26,23,22.44,23,22.44l4.72,61.35S896.55,645.87,866.81,637,823.77,607,823.77,607Z" style="fill:url(#be38463a-29a2-47e3-9ccf-566c64a8e97c)"/><path d="M988.89,626.05s1.57-4.7,0-15.65-25-44.35-25-55.83c0-8.05-5.41-54-9.39-63.13-2.64-6.07-15.6-13.89-20.36-17.75a7.76,7.76,0,0,0-4.64-1.71,9.54,9.54,0,0,0-9.74,9.67v40a74,74,0,0,0,2.9,7.83c2.25,14.65,6.47,40.49,9.41,48.55,4.17,11.48,28.17,55.3,36.52,58.43s11,9.39,11,9.39S992,642.22,994.63,637Z" style="fill:url(#b55dbd77-0600-4c0c-ba4e-9f172e8e58cf)"/><path d="M869.12,379.61a8.82,8.82,0,0,0,5.7,15.06c11.28.68,27.48.94,34.52-2.47,11.35-5.49,17.94-8.42,19.77-15.38S913,362.54,905.67,362.54C900.4,362.54,879.71,369,869.12,379.61Z" style="fill:url(#acb74844-c2c2-4121-add5-ac49197b46c5)"/><path d="M858.26,394.58s-4.22-16.11.54-22.52S874,359.79,883,359.24s18.13,2.93,22,10.26,3.3,22.33,3.3,22.33-5.86,7-15,7.88-24.35,2-28.92.91S858.26,394.58,858.26,394.58Z" style="fill:url(#b2cf6f50-f352-44d6-8e6b-03a5e53dc568)"/><path d="M1021.87,474.24c0-.6.6-1.09,1.39-1.21v-1.11c-.79-.11-1.39-.61-1.39-1.21s.6-1.09,1.39-1.21v-1.1c-.79-.12-1.39-.62-1.39-1.22s.6-1.09,1.39-1.21V452.4h-4.49v22.83l2.32,3.14,2-2.95C1022.4,475.27,1021.87,474.8,1021.87,474.24Z" style="fill:#2f334f"/><path d="M1021.11,458.88h-5.77c0-5.23,2.6-9.54,5.77-9.54s5.77,4.31,5.77,9.54Z" style="fill:#df6aa8"/><path d="M1010.15,456.23s16.83-7.44,17.61-3.91-5.08,12.52-11.74,11.73S1010.15,456.23,1010.15,456.23Z" style="fill:#fbcdc3"/></g></g></svg>