<?xml version="1.0" encoding="utf-8"?>
<!-- Generator: Adobe Illustrator 26.0.0, SVG Export Plug-In . SVG Version: 6.00 Build 0)  -->
<svg version="1.1" id="Layer_1" xmlns="http://www.w3.org/2000/svg" xmlns:xlink="http://www.w3.org/1999/xlink" x="0px" y="0px"
	 viewBox="0 0 512 512" style="enable-background:new 0 0 512 512;" xml:space="preserve">
<style type="text/css">
	.st0{fill:url(#SVGID_1_);}
	.st1{fill:url(#SVGID_00000170976501249310784980000009495387716032986005_);}
	.st2{fill:url(#SVGID_00000042714987442485475030000018242620754759208123_);}
	.st3{fill:url(#SVGID_00000018929815429462538310000013922627161180522157_);}
	.st4{fill:url(#SVGID_00000023992121019878905700000015032700924866025351_);}
</style>
<g>
	<linearGradient id="SVGID_1_" gradientUnits="userSpaceOnUse" x1="184.85" y1="385.12" x2="184.85" y2="128.0872">
		<stop  offset="0" style="stop-color:#F0A585"/>
		<stop  offset="1" style="stop-color:#F37679"/>
	</linearGradient>
	<path class="st0" d="M305.7,219.2v111.2h-22.2v-12.7h-17.4v18.9c3.7,0,7.5,0.1,11.3,0c2.1-0.1,3.2,0.4,3.2,2.8
		c-0.1,5.7-0.1,11.5,0,17.2c0,2-0.6,2.9-2.8,2.8c-10.6-0.1-21.2-0.1-31.8,0c-2.7,0-3-1.2-3-3.4c0.1-12,0-24,0-35.9
		c0-0.7-0.1-1.5-0.2-2.7h-4.5c-29.6,0-59.1,0.1-88.7,0.2c-11.4,0-21.1,9.2-21.4,20.6c-0.4,11.6-3.5,22.1-11.3,30.9
		c-9.3,10.5-21.1,15.5-35.1,15.6c-6,0-12,0.2-17.9,0.3v-23.2c7.1,0,14.2,0.3,21.3,0c10.5-0.5,19.6-9.8,19.9-20.6
		c0.5-14.6,5.3-27.2,17-36.3c4.2-3.3,9.3-5.7,14.3-7.8c2.4-1,3.3-2,3.1-4.5c-0.2-2,0-4,0-6.3h-23v-22.6h22.9v-30.5h96.2
		c0.1-0.3,0.3-0.6,0.5-0.9c-3.3-3.3-6.7-6.5-10-9.8c-4.1-4-8-8.2-12.2-12.1c-1.1-1-3.1-1.8-4.5-1.6c-16,1.5-32,3.3-48,4.8
		c-1.6,0.2-3.9-0.3-4.9-1.4c-18.6-19-37-38.1-55.5-57.2c-0.3-0.3-0.6-0.8-1.3-1.6c7.2-1.5,14.1-3,21-4.4
		c33.8-6.9,67.6-13.7,101.3-20.6c2.2-0.5,3.3,0.2,4.9,1.4c6.8,5.3,9.4,11.4,7.4,20.5c-2.8,12.5-3.6,25.4-5.4,38.1
		c-0.4,2.9,0.1,5.1,2.3,7.3c11.7,11.4,23.2,23,34.7,34.6c2.1,2.1,4.1,3.2,7.2,3c3.3-0.3,6.7-0.1,10.4-0.1v-13.8H305.7z"/>
	
		<linearGradient id="SVGID_00000183220066026552095430000006906880722289958332_" gradientUnits="userSpaceOnUse" x1="188.9588" y1="444.44" x2="188.9588" y2="340.37">
		<stop  offset="0" style="stop-color:#F0A585"/>
		<stop  offset="1" style="stop-color:#F37679"/>
	</linearGradient>
	<path style="fill:url(#SVGID_00000183220066026552095430000006906880722289958332_);" d="M230.4,402.3c-0.8,12.5-0.2,25.2-0.2,37.8
		v4.3h-82.7c5.5-34.9,10.9-69.3,16.4-104.1h54c-1.3,8.5-2.4,16.9-3.8,25.2c-1.9,11-2.3,11.5,6.8,17.5
		C228.2,387.9,231,393.5,230.4,402.3z"/>
	
		<linearGradient id="SVGID_00000111168221407514580380000010978395009821371284_" gradientUnits="userSpaceOnUse" x1="153.67" y1="130.03" x2="153.67" y2="66.6">
		<stop  offset="0" style="stop-color:#F0A585"/>
		<stop  offset="1" style="stop-color:#F37679"/>
	</linearGradient>
	<path style="fill:url(#SVGID_00000111168221407514580380000010978395009821371284_);" d="M206.4,108.6
		c-35.5,7.2-70.2,14.3-105,21.4c-0.1-0.3-0.3-0.5-0.4-0.8c21.5-20.8,42.9-41.5,64.7-62.6C179.2,80.5,192.5,94.3,206.4,108.6z"/>
	
		<linearGradient id="SVGID_00000167397695866248206550000011634702803652210621_" gradientUnits="userSpaceOnUse" x1="419.745" y1="314.98" x2="419.745" y2="234.46">
		<stop  offset="0" style="stop-color:#F0A585"/>
		<stop  offset="1" style="stop-color:#F37679"/>
	</linearGradient>
	<path style="fill:url(#SVGID_00000167397695866248206550000011634702803652210621_);" d="M447.1,299.7c-5.3,5-10.7,10-16.3,15.2
		c-12.8-13.3-26.1-27.2-38.5-40.2c12.3-12.9,25.5-26.7,38.5-40.3c5.7,5.5,10.9,10.6,15.9,15.5c-8,8.3-16.1,16.6-24,24.7
		C430.9,283,438.9,291.3,447.1,299.7z"/>
	
		<linearGradient id="SVGID_00000058556684337011380530000013923087969319480469_" gradientUnits="userSpaceOnUse" x1="354.125" y1="302.29" x2="354.125" y2="248.12">
		<stop  offset="0" style="stop-color:#F0A585"/>
		<stop  offset="1" style="stop-color:#F37679"/>
	</linearGradient>
	<path style="fill:url(#SVGID_00000058556684337011380530000013923087969319480469_);" d="M379.6,263.9v22.6
		c-5.8,0-11.6,0.4-17.4-0.1c-7.7-0.7-14.3,1.1-20.2,6.4c-4,3.5-8.6,6.2-13.4,9.6v-54.2c6.8,4.8,13.1,9.4,19.6,13.7
		c1.7,1.1,4,1.9,6.1,2C362.7,264,371,263.9,379.6,263.9z"/>
</g>
</svg>
